<?xml version="1.0" encoding="utf-8"?>
<!-- Generator: Adobe Illustrator 23.0.0, SVG Export Plug-In . SVG Version: 6.00 Build 0)  -->
<svg version="1.1" id="Layer_1" xmlns="http://www.w3.org/2000/svg" xmlns:xlink="http://www.w3.org/1999/xlink" x="0px" y="0px"
	 viewBox="0 0 612 792" style="enable-background:new 0 0 612 792;" xml:space="preserve">
<style type="text/css">
	.st0{fill:#7CC04D;}
	.st1{fill:#71AF44;}
	.st2{fill:#74AB4B;}
	.st3{fill:#A7C68E;}
	.st4{fill:#9FD17D;}
	.st5{fill:#333333;}
	.st6{fill:#639A38;}
	.st7{fill:#7CC14E;}
	.st8{fill:#74B446;}
	.st9{fill:#7BC04D;}
	.st10{fill:#010101;}
</style>
<path class="st0" d="M-121.03,188c-0.09,7.62,0.33,15.29-0.37,22.85c-1.8,19.46,0.74,37.96,10.49,55.16
	c-4.26-0.39-6.46-3.85-8.7-6.62c-6.37-7.93-13.79-14.87-20.74-22.21c-14.04-14.84-27.72-30.04-42.11-44.55
	c-1.78-1.79-5.29-3.39-2.85-7.09c2.76-0.31,5.6,0.58,8.3-0.53c0.67,0,1.33,0,2,0c2.33,0.82,4.67,0.82,7,0c1,0,2,0,3,0
	c5.21,1.82,10.56,1.73,15.95,1.2c5.03-0.19,10.05-0.28,15.02,0.75C-129.79,188.5-125.28,186.59-121.03,188z"/>
<path class="st1" d="M-149.05,186.2c-4.8,1.67-9.73,0.56-14.59,0.63c-0.89,0.01-1.21-0.98-1.35-1.83c2.33,0,4.67,0,7,0
	C-155.25,187.16-151.97,185.31-149.05,186.2z"/>
<path class="st2" d="M-177,185c-2.82,1.99-6.02,0.57-9.01,1c-0.35,0.32-0.69,0.3-1.02-0.01c-0.06-0.33-0.04-0.66,0.04-0.99
	C-183.67,185-180.33,185-177,185z"/>
<path class="st3" d="M-168,185c-2.33,1.67-4.67,1.46-7,0C-172.67,185-170.33,185-168,185z"/>
<path class="st4" d="M-284,460c1.63,2,1.42,4,0,6C-284,464-284,462-284,460z"/>
<path class="st5" d="M655.23,516.41c5.85-19.84,11.29-38.25,16.71-56.66c1.78-6.06,3.51-12.13,5.33-18.17
	c1.93-6.38,5.88-9.57,11.75-9.61c6.01-0.03,9.81,2.9,11.79,9.47c7.08,23.38,14.08,46.78,21.12,70.18c0.38,1.26,0.8,2.51,1.53,4.78
	c4.37-14.81,8.44-28.68,12.55-42.55c3.21-10.83,6.41-21.67,9.73-32.47c2.38-7.74,8.36-11.34,15.07-9.27
	c6.15,1.9,9.22,8.63,7.08,15.9c-7.6,25.83-15.2,51.66-22.93,77.45c-4.28,14.29-14.71,20.95-27.17,17.6
	c-7.51-2.02-12.49-6.9-14.8-14.23c-4.6-14.58-8.97-29.22-13.46-43.93c-1.45,0.48-1.32,1.9-1.67,3.04
	c-3.92,13.05-7.74,26.13-11.77,39.15c-3.44,11.1-10.71,16.91-20.72,16.95c-10.44,0.03-18.07-5.71-21.43-16.74
	c-8.06-26.38-15.96-52.81-23.84-79.25c-2.17-7.27,1.11-13.55,7.73-15.47c6.46-1.87,12.45,1.89,14.67,9.27
	c6.84,22.76,13.65,45.52,20.49,68.28C653.53,511.78,654.18,513.4,655.23,516.41z"/>
<path class="st6" d="M-37.01,345.09c9.71,10.39,19.18,21.02,29.45,30.87c2.52,2.42,4.79,5.02,6.57,8.04
	c-16.06,16.09-35.66,25.61-57.83,29.05c-43.53,6.77-79.55-7.25-107.83-41.04c-0.86-1.03-2.88-1.95-1.86-3.62
	c0.71-1.17,2.47-0.45,3.74-0.41c36.1,1.02,72.2,2.13,108.31,3.07c11.41,0.3,19.23-6.71,20.05-17.2
	C-36.18,350.86-38.24,348.09-37.01,345.09z"/>
<path class="st6" d="M-115.77,354.47c-19.15-0.51-38.3-1.16-57.46-1.43c-4.56-0.06-7.02-1.74-8.64-5.83
	c-3.25-8.22-5.85-16.6-7.7-25.26c-0.84-3.92,0.74-4.68,4.1-4.58c32.47,1.02,64.95,2.05,97.42,2.92c5.13,0.14,9.09,1.57,12.61,5.61
	c6.89,7.91,14.31,15.35,21.47,23.04c1.3,1.4,3.24,2.68,2.23,5.09c-1.08,2.6-3.44,2.24-5.58,2.19c-19.49-0.51-38.97-1.05-58.46-1.58
	C-115.78,354.58-115.78,354.52-115.77,354.47z"/>
<path class="st0" d="M-58.15,280.19c0.95-28.44,1.96-56.88,2.78-85.32c0.11-3.65,1.23-3.92,4.44-3.15
	c9.13,2.19,17.72,5.62,26.04,9.91c2.48,1.28,3.15,2.87,3.06,5.51c-1.21,39.26-2.33,78.52-3.45,117.78c-0.06,2.2,0.13,4.72-2.34,5.54
	c-2.25,0.74-3.54-1.45-4.87-2.86c-7.86-8.37-15.62-16.83-23.51-25.17c-2-2.11-2.63-4.44-2.56-7.25c0.14-4.99,0.04-9.98,0.04-14.97
	C-58.39,280.19-58.27,280.19-58.15,280.19z"/>
<path class="st6" d="M-95.66,304.83c-7.55,0-14.3,0.15-21.04-0.03c-22.65-0.59-45.29-1.3-67.93-1.96c-6.33-0.19-6.54-0.37-6.36-6.56
	c0.24-8.16,0.61-16.31,0.79-24.47c0.06-2.55,0.57-4.11,3.6-4.02c14.14,0.45,28.32-0.01,42.38,2.03c8.91,1.29,16.95,4.84,24.06,10.3
	C-111.05,287.12-103.75,295.92-95.66,304.83z"/>
<path class="st0" d="M-74.97,282.41c-10.44-12.26-23.75-22.3-28.39-38.98c-3.47-12.48-2.65-25.07-2.2-37.7
	c0.16-4.49,0.37-8.98,0.48-13.48c0.05-2.03,0.37-3.73,2.93-3.68c8.82,0.18,17.63,0.48,26.45,0.54c3.68,0.02,4.91,1.5,4.78,5.15
	c-0.83,22.96-1.55,45.92-2.2,68.88c-0.18,6.3-0.03,12.61-0.03,18.91C-73.77,282.17-74.37,282.29-74.97,282.41z"/>
<path class="st6" d="M-187.04,185.99c0.34,0,0.68,0.01,1.02,0.01c0.74,1.68,1.74,3.17,3.03,4.51c14.57,15.21,29.15,30.41,43.63,45.7
	c8.32,8.78,16.44,17.74,24.69,26.58c1.12,1.19,2.49,2.15,3.75,3.21c0.27,0.75,0.98,1.83,0.72,2.19c-0.77,1.04-1.29-0.25-1.82-0.62
	c-11.46-7.9-24.08-12.67-37.98-13.5c-11.11-0.66-22.25-0.77-33.37-1.07c-6.32-0.17-6.46-0.39-6.25-6.47
	c0.63-18.26,1.13-36.53,1.74-54.79C-187.8,189.82-188.43,187.74-187.04,185.99z"/>
<path class="st0" d="M255.16,479.39c0,12.33,0.15,24.65-0.04,36.98c-0.23,14.55-10.04,25.97-24.7,29.2
	c-12.93,2.85-26.92-3.92-33.08-16.01c-0.45-0.89-0.94-1.78-1.22-2.73c-0.63-2.13-0.31-3.95,1.98-4.98c2.3-1.03,3.93-0.09,5,1.87
	c1.76,3.22,3.39,6.53,6.32,8.89c7.21,5.79,15.24,7.45,23.84,3.88c8.79-3.66,13.88-10.54,13.96-20.09c0.2-23.65-0.09-47.3-0.07-70.96
	c0-2.87-1.33-3.26-3.68-3.21c-5.83,0.11-11.66,0.03-17.49,0.11c-2.73,0.04-5.29-0.33-5.41-3.66c-0.12-3.3,2.27-3.96,5.09-3.99
	c7.49-0.06,14.98-0.3,22.47-0.35c5.85-0.04,6.82,1.02,6.83,7.09c0.02,12.66,0.01,25.32,0.01,37.98
	C255.03,479.39,255.09,479.39,255.16,479.39z"/>
<path class="st0" d="M360.52,483.35c13.76-12.19,30.7-14.43,43.17-6.16c9.35,6.2,13.87,15.05,14.04,26.13
	c0.17,11.66,0.13,23.32,0.18,34.99c0.01,2.8-0.09,5.74-3.89,5.64c-3.71-0.11-3.17-3.2-3.21-5.62c-0.17-11.49-0.26-22.98-0.43-34.47
	c-0.21-14.43-9.27-23.85-23.07-24.03c-15.97-0.22-25.72,8.43-26.08,23.66c-0.28,11.65,0.02,23.32,0.02,34.99
	c0,2.43,0.55,5.47-3.17,5.65c-3.91,0.19-3.9-2.8-3.91-5.56c-0.05-15.99-0.07-31.99-0.16-47.98c-0.04-7.92-2.98-10.69-10.99-10.63
	c-2.67,0.02-5.33,0.07-8-0.01c-2.18-0.07-3.38-1.49-3.55-3.5c-0.13-1.6,0.83-3.26,2.43-3.31c6.42-0.19,12.97-1.66,19.13,1.49
	C356.56,476.41,358.97,479.29,360.52,483.35z"/>
<path class="st0" d="M322.22,498.57c0,6.33,0.13,12.66-0.03,18.99c-0.37,15.39-12.87,27.28-28.63,27.37
	c-15.57,0.09-28.14-11.36-28.71-26.67c-0.49-13.14-0.45-26.3-0.6-39.46c-0.03-2.75,0.11-5.82,3.88-5.7
	c3.72,0.12,3.65,3.23,3.66,5.95c0.04,11.99,0.08,23.98,0.07,35.98c-0.01,13.13,9.01,22.72,21.39,22.66
	c12.78-0.06,21.75-9.16,21.79-22.25c0.04-12.33-0.03-24.65-0.09-36.98c-0.01-2.78-0.09-5.86,3.66-5.82
	c3.77,0.05,3.54,3.22,3.54,5.94c-0.01,6.66,0,13.32,0,19.99C322.17,498.57,322.2,498.57,322.22,498.57z"/>
<path class="st7" d="M516.1,488.48c0-16.33,0.01-32.66-0.01-49c0-2.76-0.1-5.96,3.42-6.17c3.96-0.23,4.09,3.19,4.1,6.08
	c0.14,33,0.24,66,0.37,98.99c0.01,2.78-0.59,5.34-3.85,5.23c-2.97-0.1-3.4-2.62-3.39-5.16c0.03-16.66,0.01-33.32,0.01-49.98
	C516.54,488.48,516.32,488.48,516.1,488.48z"/>
<path class="st8" d="M-121.03,188c-4.31-0.58-8.83,1.24-13-1.05C-129.69,187.18-125.23,185.96-121.03,188z"/>
<path class="st9" d="M145.02,307.06C114,261.73,72.8,230.17,18.9,216.58c-7.37-1.86-14.68-3.76-22.58-1.22
	c-2.59,0.84-2.47,1.67-2.53,3.33C-6.72,233-7.25,247.31-7.7,261.62c-0.7,22.13-1.3,44.26-2.04,66.39
	c-0.24,7.29-3.18,13.14-9.86,16.78c-5.78,3.15-11.58,1.93-17.41,0.3c0.22,2.71,2.29,4.2,3.91,6.01
	c8.63,9.59,17.64,18.82,26.87,27.83c1.74,1.69,2.54,4.37,5.24,5.07c2.52-2.31,5.03-4.62,7.97-7.32c1.48,4.59-0.48,7.71-3.05,10.24
	c-7.58,7.47-14.8,15.34-23.63,21.48c-38.93,27.04-94.83,24.56-132.8-6.5c-18.14-14.83-32.84-32.32-35.89-56.78
	c-2-16.04-11.98-15.65-22.1-11.68c-1.54,0.61-3.06,1.36-4.45,2.25c-13.13,8.4-25.2,18.13-35.02,30.27
	c-16.06,19.86-24.97,42.98-30.18,67.76c-1.42,6.74-1.19,13.79-3.87,20.28c0,2,0,4,0,6c0.82,2,0.82,4,0,6c0,9.33,0,18.67,0,28
	c1.46,0.58,1.03,1.94,1.17,3.01c2.59,20.27,7.6,39.82,16.71,58.24c9.44,19.07,22.35,34.23,43.8,40.21
	c9.6,2.68,19.38,2.88,29.23,2.51c17.23-0.64,21.28-4.67,21.92-21.82c0.52-13.98,9.84-22.92,23.76-22.79
	c13.99,0.12,22.11,8.58,22.31,23.25c0.01,1-0.01,2,0.01,3c0.17,10.92,5.38,16.17,16.39,16.26c8.33,0.07,16.66,0,24.99-0.14
	c9.33-0.16,18.66-0.31,27.97-0.76c9.39-0.46,11.78-3.89,8.45-12.53c-2.69-6.97-6.11-13.66-9.09-20.53
	c-17.63-40.73,0.09-87.36,39.71-104.61c31.29-13.62,63.84-5.21,82.02,21.55c11.7,17.22,11.97,35.55,3.58,54.14
	c-3.89,8.62-8.76,10.77-18.02,9.18c-2.2-0.38-4.32-0.12-6.36,0.72c-16,6.64-29.04,16.98-37.89,31.92
	c-5.91,9.98-2.37,16.96,9.09,19.24c12.79,2.55,25.65,3.45,38.73,2.2c38.1-3.65,69.18-20.56,93.65-49.62
	c25.89-30.75,36.77-67.17,37.59-106.66C186.73,391.35,172.37,347.03,145.02,307.06z M64.66,353.99c-12.12,0-19.47-6.95-19.55-18.46
	c-0.07-11.81,7.23-19.44,18.66-19.49c11.72-0.06,19.23,7.59,19.2,19.55C82.95,347.22,76.2,353.99,64.66,353.99z"/>
<path class="st5" d="M816.89,431.67c-8.27-1.27-16.62-0.27-24.94-0.33c-9.42-0.08-13.77,4.39-13.78,13.73
	c-0.02,13.99-0.01,27.98-0.01,41.97c0.18,0,0.36,0,0.55,0c0,14.66-0.1,29.31,0.05,43.97c0.07,6.7,4.94,11.58,11.14,11.75
	c6.28,0.17,11.52-4.89,11.88-11.69c0.18-3.49,0-6.99,0-10.49c0-10.36,0-10.36,10.32-10.72c21.13-0.73,37.39-16.84,38.61-38.25
	C851.8,452.28,837.04,434.77,816.89,431.67z M809.88,486.82c-8.4-0.04-8.4-0.04-8.4-8.46c0-2.66,0-5.32,0-7.97c-0.03,0-0.06,0-0.1,0
	c0-2.66,0-5.32,0-7.97c0-8.25,0-8.25,8.47-8.27c10.21-0.03,17.5,6.76,17.53,16.33C827.4,480.01,820.07,486.87,809.88,486.82z"/>
<path class="st0" d="M504.59,472.87c-2.91-0.65-4.16,1.08-4.79,3.74c-0.9,3.78-2.06,7.5-3.18,11.52
	c-20.79-21.14-41.81-23.61-58.63-7.28c-14.55,14.12-15.14,37.68-1.33,52.28c15.57,16.45,37.54,15.65,57.49-2.59
	c0,15.07,0.02,29.39-0.03,43.71c-0.01,1.64-0.3,3.32-0.73,4.91c-5.55,20.54-29.54,28.4-46.29,15.22c-1.28-1.01-2.28-2.46-4.18-2.49
	c-1.75-0.02-2.82,0.93-3.47,2.38c-1.08,2.45,0.78,3.72,2.27,4.97c10.73,9.02,22.96,11.36,35.98,6.59
	c13.21-4.84,21.13-14.65,23.36-28.71c1.36-8.61,0.26-17.29,0.46-25.94c0.55-24.14-3.81-48.66,5.3-72.17
	c0.06-0.15,0.08-0.32,0.1-0.49C507.24,476.17,507.84,473.59,504.59,472.87z M464.05,537.74c-16.54,0.09-30.11-13.5-30.11-30.15
	c0-16.75,13.33-29.94,30.19-29.87c16.76,0.07,29.94,13.4,29.87,30.22C493.93,524.25,480.47,537.65,464.05,537.74z"/>
<path class="st0" d="M597.21,493.74c3.7-2.71,3.91-5.11,1.12-8.61c-8.59-10.83-24.18-16.1-37.7-12.5
	c-18.54,4.95-30.08,23.42-26.42,42.29c3.49,17.97,21.38,31.04,39.82,28.88c8.45-0.99,16.1-4.01,22.23-10.21
	c1.59-1.61,2.21-3.4,0.46-5.25c-1.68-1.78-3.51-1.58-5.3-0.07c-1.02,0.86-2,1.76-3.07,2.55c-11.76,8.61-29.07,7.62-37.92-2.28
	c0.63-0.51,1.24-1.03,1.89-1.51C567.27,515.91,582.17,504.73,597.21,493.74z M548.18,521.11c-2.41,1.82-3.52,1.5-4.61-1.21
	c-1.63-4.06-2.78-8.17-2.71-12.63c0.75-12.14,6.33-21.27,17.64-26.09c10.64-4.53,20.76-2.89,29.94,4.35
	c2.84,2.24,2.8,3.68-0.21,5.86C574.79,501.18,561.45,511.11,548.18,521.11z"/>
<path class="st10" d="M869.68,397c-14.58-0.02-26.39,11.84-26.6,26.68c-0.21,14.97,11.7,27.28,26.43,27.32
	c14.7,0.04,26.41-11.74,26.49-26.66C896.08,409.03,884.52,397.02,869.68,397z M869.68,446c-12.3,0.04-22.36-10-22.24-22.17
	c0.13-12.05,9.98-21.78,22.09-21.82c12.26-0.05,22.42,10.07,22.28,22.19C891.67,436.23,881.79,445.96,869.68,446z"/>
<path class="st10" d="M876.54,430.69c-0.96-1.53-2.25-2.87-3.51-4.44c5.82-3.27,7.92-6.99,6.73-11.61
	c-1.18-4.56-4.46-6.57-10.87-6.63c-2.83-0.03-5.65,0.04-8.48-0.02c-1.53-0.04-2.46,0.19-2.45,2.1c0.07,9.31,0.05,18.62,0.01,27.92
	c-0.01,1.43,0.38,2.15,1.97,2.02c1.33-0.11,2.76,0.14,2.72-1.9c-0.04-2.16-0.19-4.34,0.06-6.47c0.18-1.56-1.3-3.96,1.36-4.54
	c2.26-0.49,4.72-0.42,6.21,1.96c1.5,2.38,3.14,4.71,4.3,7.26c1.42,3.1,3.1,4.91,6.89,2.92
	C879.85,436.39,878.29,433.48,876.54,430.69z M867.03,422.08c-4.13,0.59-4.25-1.4-4.51-4.73c-0.37-4.7,2.02-4.79,4.67-4.37
	c4.08,0.02,8.04-0.08,7.83,4.67C874.79,422.71,870.4,421.6,867.03,422.08z"/>
</svg>
